<?xml version="1.0" encoding="utf-8"?>
<svg width="1000px" height="1000px" viewBox="0 0 1000 1000" version="1.1" xmlns:xlink="http://www.w3.org/1999/xlink" xmlns="http://www.w3.org/2000/svg">
  <defs>
    <linearGradient gradientUnits="userSpaceOnUse" x1="0" y1="0" x2="196.55374" y2="714.43976" id="gradient_1">
      <stop offset="0%" stop-color="#4000FF" />
      <stop offset="100%" stop-color="#AC01FB" />
    </linearGradient>
    <linearGradient gradientUnits="userSpaceOnUse" x1="196.55096" y1="0" x2="-8.591515E-06" y2="440.57584" id="gradient_2">
      <stop offset="0%" stop-color="#FF4400" />
      <stop offset="100%" stop-color="#F00CFC" />
    </linearGradient>
    <linearGradient gradientUnits="userSpaceOnUse" x1="0" y1="0" x2="191.03258" y2="191.03258" id="gradient_3">
      <stop offset="0%" stop-color="#007EB9" />
      <stop offset="100%" stop-color="#9C0CFC" />
    </linearGradient>
    <path d="M0 0L1000 0L1000 1000L0 1000L0 0Z" id="path_1" />
    <clipPath id="clip_1">
      <use xlink:href="#path_1" />
    </clipPath>
  </defs>
  <g id="Logo" clip-path="url(#clip_1)">
    <path d="M0 0L1000 0L1000 1000L0 1000L0 0Z" id="Logo" fill="none" fill-rule="evenodd" stroke="none" />
    <g id="Group" transform="translate(161 143.55994)">
      <path d="M267.745 63.0326L370.3 24.1421Q371.628 23.6386 372.984 23.2161Q374.34 22.7937 375.719 22.4539Q377.098 22.114 378.495 21.8581Q379.892 21.6021 381.301 21.431Q382.711 21.2599 384.129 21.1742Q385.546 21.0884 386.966 21.0885Q388.387 21.0885 389.804 21.1743Q391.222 21.2601 392.631 21.4313Q394.041 21.6025 395.438 21.8585Q396.835 22.1145 398.214 22.4544Q399.593 22.7943 400.948 23.2169Q402.304 23.6394 403.632 24.143Q404.96 24.6466 406.255 25.2295Q407.55 25.8123 408.807 26.4723Q410.065 27.1323 411.28 27.867Q412.496 28.6017 413.664 29.4085Q414.833 30.2152 415.951 31.0911Q417.069 31.9669 418.132 32.9087Q419.195 33.8504 420.199 34.8546Q421.203 35.8588 422.145 36.9218Q423.086 37.9848 423.962 39.1027Q424.838 40.2206 425.645 41.3894Q426.452 42.5582 427.186 43.7735Q427.921 44.9888 428.581 46.2463Q429.241 47.5038 429.824 48.7988Q430.407 50.0938 430.91 51.4217Q431.414 52.7495 431.836 54.1054Q432.259 55.4612 432.598 56.8401Q432.938 58.2189 433.194 59.6158Q433.45 61.0127 433.621 62.4225Q433.793 63.8323 433.878 65.2498Q433.964 66.6674 433.964 68.0875L433.964 667.441Q433.964 668.594 433.908 669.747Q433.851 670.899 433.738 672.047Q433.625 673.196 433.455 674.337Q433.286 675.478 433.061 676.61Q432.836 677.741 432.556 678.861Q432.275 679.98 431.94 681.084Q431.605 682.188 431.217 683.274Q430.828 684.36 430.387 685.426Q429.945 686.492 429.452 687.535Q428.958 688.578 428.415 689.596Q427.871 690.613 427.277 691.603Q426.684 692.593 426.043 693.552Q425.402 694.511 424.715 695.438Q424.028 696.365 423.296 697.257Q422.564 698.148 421.789 699.003Q421.014 699.858 420.198 700.674Q419.383 701.49 418.528 702.265Q417.673 703.039 416.781 703.771Q415.889 704.503 414.962 705.191Q414.036 705.878 413.076 706.519Q412.117 707.16 411.127 707.753Q410.138 708.346 409.12 708.89Q408.103 709.434 407.06 709.927Q406.017 710.421 404.951 710.862Q403.885 711.304 402.799 711.692Q401.712 712.081 400.608 712.416Q399.504 712.751 398.385 713.031Q397.266 713.312 396.134 713.537Q395.003 713.762 393.861 713.931Q392.72 714.1 391.572 714.213Q390.424 714.326 389.271 714.383Q388.119 714.44 386.965 714.44L284.409 714.44Q283.256 714.44 282.103 714.383Q280.951 714.326 279.803 714.213Q278.654 714.1 277.513 713.931Q276.372 713.762 275.24 713.537Q274.109 713.312 272.99 713.031Q271.87 712.751 270.766 712.416Q269.662 712.081 268.576 711.692Q267.49 711.304 266.424 710.862Q265.358 710.421 264.315 709.927Q263.272 709.434 262.254 708.89Q261.237 708.346 260.247 707.753Q259.257 707.16 258.298 706.519Q257.339 705.878 256.412 705.191Q255.485 704.503 254.594 703.771Q253.702 703.039 252.847 702.265Q251.992 701.49 251.176 700.674Q250.36 699.858 249.585 699.003Q248.811 698.148 248.079 697.257Q247.347 696.365 246.659 695.438Q245.972 694.511 245.331 693.552Q244.69 692.593 244.097 691.603Q243.504 690.613 242.96 689.596Q242.416 688.578 241.923 687.535Q241.429 686.492 240.988 685.426Q240.546 684.36 240.158 683.274Q239.769 682.188 239.434 681.084Q239.099 679.98 238.819 678.86Q238.539 677.741 238.313 676.61Q238.088 675.478 237.919 674.337Q237.75 673.196 237.637 672.047Q237.524 670.899 237.467 669.747Q237.41 668.594 237.41 667.441L237.41 106.978Q237.41 106.091 237.444 105.204Q237.477 104.317 237.544 103.432Q237.611 102.547 237.712 101.665Q237.812 100.783 237.945 99.9061Q238.079 99.0288 238.246 98.1571Q238.412 97.2854 238.611 96.4206Q238.811 95.5558 239.043 94.6992Q239.275 93.8426 239.539 92.9953Q239.803 92.148 240.098 91.3113Q240.394 90.4746 240.721 89.6497Q241.049 88.8247 241.407 88.0127Q241.765 87.2007 242.153 86.4028Q242.542 85.605 242.96 84.8223Q243.379 84.0396 243.826 83.2733Q244.274 82.507 244.75 81.7581Q245.226 81.0093 245.73 80.2789Q246.235 79.5486 246.766 78.8377Q247.297 78.1269 247.855 77.4367Q248.413 76.7465 248.996 76.0778Q249.58 75.4091 250.188 74.7629Q250.796 74.1167 251.429 73.494Q252.061 72.8712 252.716 72.2728Q253.372 71.6743 254.049 71.1011Q254.727 70.5278 255.425 69.9805Q256.124 69.4332 256.842 68.9126Q257.561 68.3921 258.299 67.8991Q259.037 67.4061 259.793 66.9412Q260.549 66.4764 261.322 66.0405Q262.095 65.6045 262.884 65.1981Q263.673 64.7916 264.477 64.4152Q265.28 64.0389 266.098 63.6931Q266.915 63.3473 267.745 63.0326Z" id="Rectangle" fill="url(#gradient_1)" fill-rule="evenodd" stroke="none" />
      <path d="M678 564.885L678 667.438Q678 668.592 677.943 669.744Q677.887 670.896 677.774 672.045Q677.661 673.193 677.491 674.334Q677.322 675.475 677.097 676.607Q676.872 677.739 676.592 678.858Q676.311 679.977 675.976 681.081Q675.641 682.185 675.253 683.271Q674.864 684.358 674.422 685.424Q673.981 686.49 673.488 687.533Q672.994 688.576 672.451 689.593Q671.907 690.611 671.313 691.6Q670.72 692.59 670.079 693.549Q669.438 694.509 668.751 695.435Q668.064 696.362 667.332 697.254Q666.6 698.146 665.825 699.001Q665.05 699.856 664.234 700.671Q663.419 701.487 662.564 702.262Q661.709 703.037 660.817 703.769Q659.925 704.501 658.998 705.188Q658.072 705.875 657.112 706.516Q656.153 707.157 655.163 707.75Q654.174 708.343 653.156 708.887Q652.139 709.431 651.096 709.925Q650.053 710.418 648.987 710.859Q647.921 711.301 646.835 711.69Q645.748 712.078 644.644 712.413Q643.54 712.748 642.421 713.029Q641.302 713.309 640.17 713.534Q639.039 713.759 637.897 713.928Q636.756 714.098 635.608 714.211Q634.459 714.324 633.307 714.38Q632.155 714.437 631.001 714.437L284.423 714.437Q283.269 714.437 282.117 714.38Q280.965 714.324 279.816 714.211Q278.668 714.098 277.527 713.928Q276.386 713.759 275.254 713.534Q274.122 713.309 273.003 713.028Q271.884 712.748 270.78 712.413Q269.676 712.078 268.59 711.689Q267.503 711.301 266.437 710.859Q265.371 710.418 264.328 709.924Q263.285 709.431 262.268 708.887Q261.25 708.343 260.261 707.75Q259.271 707.157 258.312 706.516Q257.353 705.875 256.426 705.188Q255.499 704.501 254.607 703.769Q253.715 703.037 252.861 702.262Q252.006 701.487 251.19 700.671Q250.374 699.855 249.599 699.001Q248.824 698.146 248.092 697.254Q247.36 696.362 246.673 695.435Q245.986 694.508 245.345 693.549Q244.704 692.59 244.111 691.6Q243.518 690.611 242.974 689.593Q242.43 688.576 241.937 687.533Q241.443 686.49 241.002 685.424Q240.56 684.358 240.171 683.271Q239.783 682.185 239.448 681.081Q239.113 679.977 238.833 678.858Q238.552 677.738 238.327 676.607Q238.102 675.475 237.933 674.334Q237.764 673.193 237.65 672.045Q237.537 670.896 237.481 669.744Q237.424 668.592 237.424 667.438L237.424 564.888Q237.424 563.734 237.481 562.581Q237.537 561.429 237.65 560.281Q237.764 559.133 237.933 557.991Q238.102 556.85 238.327 555.719Q238.552 554.587 238.833 553.468Q239.113 552.349 239.448 551.245Q239.783 550.14 240.171 549.054Q240.56 547.968 241.002 546.902Q241.443 545.836 241.936 544.793Q242.43 543.75 242.974 542.733Q243.518 541.715 244.111 540.725Q244.704 539.736 245.345 538.776Q245.986 537.817 246.673 536.89Q247.36 535.964 248.092 535.072Q248.824 534.18 249.599 533.325Q250.374 532.47 251.19 531.654Q252.006 530.839 252.86 530.064Q253.715 529.289 254.607 528.557Q255.499 527.825 256.426 527.138Q257.352 526.451 258.312 525.81Q259.271 525.168 260.261 524.575Q261.25 523.982 262.268 523.438Q263.285 522.894 264.328 522.401Q265.371 521.908 266.437 521.466Q267.503 521.025 268.589 520.636Q269.676 520.247 270.78 519.912Q271.884 519.577 273.003 519.297Q274.122 519.017 275.254 518.792Q276.385 518.567 277.527 518.397Q278.668 518.228 279.816 518.115Q280.964 518.002 282.117 517.945Q283.269 517.889 284.423 517.889L631.001 517.886Q632.154 517.886 633.307 517.943Q634.459 517.999 635.607 518.113Q636.756 518.226 637.897 518.395Q639.038 518.564 640.17 518.789Q641.301 519.014 642.421 519.295Q643.54 519.575 644.644 519.91Q645.748 520.245 646.834 520.634Q647.921 521.022 648.987 521.464Q650.052 521.905 651.095 522.399Q652.138 522.892 653.156 523.436Q654.174 523.98 655.163 524.573Q656.153 525.166 657.112 525.807Q658.071 526.448 658.998 527.135Q659.925 527.823 660.817 528.554Q661.709 529.286 662.563 530.061Q663.418 530.836 664.234 531.652Q665.05 532.468 665.825 533.323Q666.6 534.177 667.332 535.069Q668.064 535.961 668.751 536.888Q669.438 537.815 670.079 538.774Q670.72 539.733 671.313 540.723Q671.906 541.712 672.45 542.73Q672.994 543.747 673.487 544.791Q673.981 545.834 674.422 546.899Q674.864 547.965 675.253 549.052Q675.641 550.138 675.976 551.242Q676.311 552.346 676.591 553.465Q676.872 554.585 677.097 555.716Q677.322 556.848 677.491 557.989Q677.661 559.13 677.774 560.279Q677.887 561.427 677.943 562.579Q678 563.731 678 564.885Z" id="Rectangle-Copy" fill="url(#gradient_2)" fill-rule="evenodd" stroke="none" />
      <path d="M0 224.712C0 171.96 42.7641 129.195 95.5163 129.195C148.268 129.195 191.033 171.96 191.033 224.712C191.033 277.464 148.268 320.228 95.5163 320.228C42.7641 320.228 0 277.464 0 224.712Z" id="Oval" fill="url(#gradient_3)" fill-rule="evenodd" stroke="none" />
    </g>
  </g>
</svg>