<?xml version="1.0" encoding="utf-8"?>
<svg width="1000px" height="1000px" viewBox="0 0 1000 1000" version="1.1" xmlns:xlink="http://www.w3.org/1999/xlink" xmlns="http://www.w3.org/2000/svg">
  <defs>
    <linearGradient x1="0" y1="0" x2="1" y2="1" id="gradient_1">
      <stop offset="0" stop-color="#F8931F" />
      <stop offset="1" stop-color="#F02DD3" />
    </linearGradient>
    <linearGradient x1="0" y1="0" x2="1" y2="1" id="gradient_2">
      <stop offset="0" stop-color="#4728FF" />
      <stop offset="1" stop-color="#C319FE" />
    </linearGradient>
    <linearGradient x1="0" y1="0" x2="1" y2="1" id="gradient_3">
      <stop offset="0" stop-color="#C319FE" />
      <stop offset="1" stop-color="#F02DD3" />
    </linearGradient>
    <filter filterUnits="userSpaceOnUse" color-interpolation-filters="sRGB" id="filter_1">
      <feFlood flood-opacity="0" result="BackgroundImageFix" />
      <feColorMatrix in="SourceAlpha" type="matrix" values="0 0 0 0 0 0 0 0 0 0 0 0 0 0 0 0 0 0 127 0" />
      <feMorphology radius="1" operator="dilate" in="SourceAlpha" result="effect0_dropShadow" />
      <feOffset dx="0" dy="2" />
      <feGaussianBlur stdDeviation="9.5" />
      <feColorMatrix type="matrix" values="0 0 0 0 0.39215687 0 0 0 0 0.39215687 0 0 0 0 0.39215687 0 0 0 0.49803922 0" />
      <feBlend mode="normal" in2="BackgroundImageFix" result="effect0_dropShadow" />
      <feBlend mode="normal" in="SourceGraphic" in2="effect0_dropShadow" result="shape" />
    </filter>
    <rect width="1000" height="1000" id="artboard_1" />
    <clipPath id="clip_1">
      <use xlink:href="#artboard_1" clip-rule="evenodd" />
    </clipPath>
  </defs>
  <g id="Logo-Copy" clip-path="url(#clip_1)">
    <g id="Group" transform="translate(237 131)">
      <path d="M76.0497 2.28885e-05L76.0517 2.28879e-05Q77.9186 2.2326e-05 79.7832 0.0916269Q81.6479 0.183232 83.5058 0.366221Q85.3638 0.54921 87.2105 0.823142Q89.0572 1.09708 90.8882 1.46129Q92.7192 1.82551 94.5302 2.27913Q96.3412 2.73275 98.1277 3.27469Q99.9142 3.81663 101.672 4.44557Q103.43 5.07451 105.155 5.78895Q106.879 6.50339 108.567 7.3016Q110.255 8.0998 111.901 8.97986Q113.548 9.85992 115.149 10.8197Q116.75 11.7795 118.303 12.8167Q119.855 13.8539 121.354 14.966Q122.854 16.0781 124.297 17.2625Q125.74 18.4468 127.123 19.7006Q128.507 20.9543 129.827 22.2744Q131.147 23.5946 132.401 24.9778Q133.654 26.3611 134.839 27.8043Q136.023 29.2474 137.135 30.7469Q138.247 32.2465 139.285 33.7987Q140.322 35.351 141.282 36.9523Q142.241 38.5536 143.121 40.2001Q144.001 41.8466 144.8 43.5343Q145.598 45.2219 146.312 46.9467Q147.027 48.6715 147.656 50.4293Q148.285 52.1871 148.827 53.9736Q149.369 55.7601 149.822 57.5711Q150.276 59.3821 150.64 61.2131Q151.004 63.0442 151.278 64.8909Q151.552 66.7376 151.735 68.5955Q151.918 70.4534 152.01 72.3181Q152.101 74.1828 152.101 76.0497L152.101 574.06Q152.101 575.927 152.009 577.792Q151.918 579.657 151.735 581.515Q151.552 583.372 151.278 585.219Q151.004 587.066 150.64 588.897Q150.275 590.728 149.822 592.539Q149.368 594.35 148.826 596.136Q148.284 597.923 147.655 599.681Q147.026 601.438 146.312 603.163Q145.598 604.888 144.799 606.576Q144.001 608.263 143.121 609.91Q142.241 611.556 141.281 613.158Q140.321 614.759 139.284 616.311Q138.247 617.863 137.135 619.363Q136.023 620.863 134.838 622.306Q133.654 623.749 132.4 625.132Q131.147 626.515 129.827 627.835Q128.506 629.156 127.123 630.409Q125.74 631.663 124.297 632.847Q122.854 634.032 121.354 635.144Q119.855 636.256 118.302 637.293Q116.75 638.33 115.149 639.29Q113.547 640.25 111.901 641.13Q110.255 642.01 108.567 642.808Q106.879 643.606 105.154 644.321Q103.43 645.035 101.672 645.664Q99.9141 646.293 98.1275 646.835Q96.341 647.377 94.5301 647.831Q92.7191 648.284 90.8881 648.649Q89.057 649.013 87.2103 649.287Q85.3636 649.561 83.5057 649.744Q81.6478 649.927 79.7831 650.018Q77.9185 650.11 76.0516 650.11L76.0495 650.11Q74.1826 650.11 72.318 650.018Q70.4533 649.927 68.5954 649.744Q66.7375 649.561 64.8908 649.287Q63.0441 649.013 61.2131 648.649Q59.382 648.284 57.5711 647.831Q55.7601 647.377 53.9736 646.835Q52.1871 646.293 50.4293 645.664Q48.6715 645.035 46.9467 644.321Q45.222 643.607 43.5343 642.808Q41.8466 642.01 40.2002 641.13Q38.5537 640.25 36.9524 639.29Q35.3511 638.331 33.7988 637.293Q32.2466 636.256 30.747 635.144Q29.2475 634.032 27.8044 632.848Q26.3612 631.663 24.978 630.409Q23.5947 629.156 22.2746 627.836Q20.9545 626.516 19.7007 625.132Q18.447 623.749 17.2626 622.306Q16.0783 620.863 14.9662 619.363Q13.8541 617.864 12.8169 616.311Q11.7797 614.759 10.8199 613.158Q9.86009 611.557 8.98004 609.91Q8.09998 608.264 7.30178 606.576Q6.50357 604.888 5.78914 603.164Q5.0747 601.439 4.44576 599.681Q3.81682 597.923 3.27488 596.137Q2.73295 594.35 2.27933 592.539Q1.8257 590.728 1.46149 588.897Q1.09727 587.066 0.823339 585.219Q0.549406 583.373 0.366417 581.515Q0.183427 579.657 0.0918217 577.792Q0.000216282 575.928 0.000215581 574.061L2.85595e-05 76.0497Q2.78584e-05 74.1828 0.0916323 72.3181Q0.183237 70.4535 0.366226 68.5955Q0.549214 66.7376 0.823147 64.8909Q1.09708 63.0442 1.4613 61.2131Q1.82551 59.3821 2.27913 57.5711Q2.73276 55.7602 3.27469 53.9736Q3.81663 52.1871 4.44557 50.4293Q5.07452 48.6716 5.78895 46.9468Q6.50339 45.2219 7.3016 43.5343Q8.0998 41.8466 8.97986 40.2001Q9.85992 38.5537 10.8197 36.9524Q11.7795 35.351 12.8167 33.7988Q13.8539 32.2465 14.966 30.747Q16.0781 29.2474 17.2625 27.8043Q18.4468 26.3612 19.7006 24.9779Q20.9543 23.5946 22.2744 22.2745Q23.5945 20.9544 24.9778 19.7006Q26.3611 18.4469 27.8043 17.2625Q29.2474 16.0782 30.7469 14.966Q32.2465 13.8539 33.7987 12.8167Q35.351 11.7795 36.9523 10.8197Q38.5536 9.85994 40.2001 8.97988Q41.8466 8.09982 43.5342 7.30161Q45.2219 6.5034 46.9467 5.78897Q48.6715 5.07453 50.4293 4.44558Q52.1871 3.81664 53.9736 3.2747Q55.7601 2.73276 57.5711 2.27914Q59.3821 1.82552 61.2131 1.4613Q63.0441 1.09708 64.8909 0.823149Q66.7376 0.549215 68.5955 0.366225Q70.4534 0.183235 72.3181 0.0916291Q74.1827 2.34503e-05 76.0497 2.28885e-05L76.0497 2.28885e-05Z" transform="matrix(0.9612617 0.27563736 -0.27563736 0.9612617 267.32187 0.00019073486)" id="Rectangle" fill="url(#gradient_1)" fill-rule="evenodd" stroke="none" filter="url(#filter_1)" />
      <path d="M76.0489 0.000396734L76.0509 0.000396723Q77.9178 0.000386984 79.7824 0.0919816Q81.6471 0.183576 83.505 0.366554Q85.3629 0.549533 87.2096 0.823454Q89.0562 1.09737 90.8873 1.46158Q92.7183 1.82578 94.5292 2.27939Q96.3402 2.733 98.1267 3.27492Q99.9132 3.81685 101.671 4.44578Q103.429 5.07471 105.154 5.78913Q106.878 6.50355 108.566 7.30174Q110.254 8.09993 111.9 8.97998Q113.547 9.86002 115.148 10.8198Q116.749 11.7796 118.301 12.8167Q119.854 13.8539 121.353 14.966Q122.853 16.0781 124.296 17.2625Q125.739 18.4468 127.122 19.7005Q128.505 20.9543 129.826 22.2743Q131.146 23.5944 132.399 24.9777Q133.653 26.361 134.837 27.8041Q136.022 29.2472 137.134 30.7467Q138.246 32.2462 139.283 33.7985Q140.32 35.3507 141.28 36.952Q142.24 38.5533 143.12 40.1998Q144 41.8462 144.798 43.5339Q145.596 45.2215 146.311 46.9463Q147.025 48.6711 147.654 50.4288Q148.283 52.1866 148.825 53.9731Q149.367 55.7596 149.821 57.5705Q150.274 59.3815 150.639 61.2125Q151.003 63.0435 151.277 64.8902Q151.551 66.7369 151.734 68.5948Q151.917 70.4527 152.008 72.3174Q152.1 74.182 152.1 76.0489L152.1 336.096Q152.1 337.963 152.008 339.828Q151.917 341.692 151.734 343.55Q151.551 345.408 151.277 347.255Q151.003 349.101 150.639 350.932Q150.274 352.763 149.821 354.574Q149.367 356.385 148.825 358.172Q148.283 359.958 147.654 361.716Q147.026 363.474 146.311 365.199Q145.597 366.924 144.798 368.611Q144 370.299 143.12 371.945Q142.24 373.592 141.28 375.193Q140.321 376.794 139.283 378.347Q138.246 379.899 137.134 381.398Q136.022 382.898 134.838 384.341Q133.653 385.784 132.4 387.167Q131.146 388.551 129.826 389.871Q128.506 391.191 127.122 392.445Q125.739 393.698 124.296 394.883Q122.853 396.067 121.353 397.179Q119.854 398.291 118.302 399.328Q116.749 400.366 115.148 401.325Q113.547 402.285 111.9 403.165Q110.254 404.045 108.566 404.843Q106.879 405.642 105.154 406.356Q103.429 407.07 101.671 407.699Q99.9135 408.328 98.127 408.87Q96.3405 409.412 94.5295 409.866Q92.7186 410.319 90.8876 410.684Q89.0565 411.048 87.2099 411.322Q85.3632 411.596 83.5053 411.779Q81.6474 411.962 79.7827 412.053Q77.9181 412.145 76.0512 412.145L76.0492 412.145Q74.1823 412.145 72.3176 412.053Q70.453 411.962 68.5951 411.779Q66.7372 411.596 64.8905 411.322Q63.0438 411.048 61.2128 410.684Q59.3817 410.319 57.5708 409.866Q55.7599 409.412 53.9734 408.87Q52.1868 408.328 50.4291 407.699Q48.6713 407.07 46.9465 406.356Q45.2217 405.642 43.5341 404.843Q41.8464 404.045 40.2 403.165Q38.5535 402.285 36.9522 401.325Q35.351 400.366 33.7987 399.328Q32.2464 398.291 30.7469 397.179Q29.2474 396.067 27.8043 394.883Q26.3612 393.698 24.9779 392.445Q23.5946 391.191 22.2745 389.871Q20.9544 388.551 19.7007 387.167Q18.4469 385.784 17.2626 384.341Q16.0783 382.898 14.9661 381.398Q13.854 379.899 12.8168 378.347Q11.7797 376.794 10.8199 375.193Q9.8601 373.592 8.98005 371.945Q8.1 370.299 7.3018 368.611Q6.5036 366.923 5.78917 365.199Q5.07474 363.474 4.4458 361.716Q3.81686 359.958 3.27493 358.172Q2.733 356.385 2.27938 354.574Q1.82576 352.763 1.46154 350.932Q1.09733 349.101 0.823396 347.255Q0.549465 345.408 0.366476 343.55Q0.183487 341.692 0.0918809 339.828Q0.000275269 337.963 0.000273748 336.096L6.19414e-05 76.0497Q6.04209e-05 74.1828 0.091663 72.3181Q0.183266 70.4535 0.366252 68.5956Q0.549238 66.7377 0.823166 64.891Q1.09709 63.0443 1.46131 61.2133Q1.82552 59.3822 2.27913 57.5713Q2.73275 55.7603 3.27468 53.9738Q3.81661 52.1873 4.44555 50.4295Q5.07448 48.6718 5.78891 46.947Q6.50334 45.2222 7.30153 43.5345Q8.09973 41.8469 8.97978 40.2004Q9.85983 38.554 10.8196 36.9527Q11.7794 35.3514 12.8166 33.7991Q13.8538 32.2468 14.9659 30.7473Q16.078 29.2478 17.2623 27.8047Q18.4467 26.3615 19.7004 24.9782Q20.9541 23.595 22.2742 22.2749Q23.5943 20.9548 24.9776 19.701Q26.3608 18.4473 27.804 17.2629Q29.2471 16.0786 30.7466 14.9665Q32.2461 13.8544 33.7984 12.8172Q35.3506 11.78 36.9519 10.8202Q38.5532 9.86039 40.1997 8.98033Q41.8461 8.10027 43.5338 7.30207Q45.2214 6.50386 46.9462 5.78942Q48.671 5.07498 50.4288 4.44603Q52.1865 3.81709 53.973 3.27515Q55.7595 2.73321 57.5705 2.27958Q59.3814 1.82595 61.2125 1.46173Q63.0435 1.09751 64.8902 0.823568Q66.7369 0.549629 68.5948 0.366631Q70.4527 0.183634 72.3173 0.0920203Q74.182 0.000406473 76.0489 0.000396734L76.0489 0.000396734Z" transform="matrix(-0.27563736 0.9612617 -0.9612617 -0.27563736 526.33606 592.54736)" id="Rectangle-Copy" fill="url(#gradient_2)" fill-rule="evenodd" stroke="none" filter="url(#filter_1)" />
      <path d="M319.418 0C319.418 0 168.723 254.956 0 0" transform="translate(0 94.197266)" id="New-shape" fill="none" fill-rule="evenodd" stroke="url(#gradient_3)" stroke-width="152.1" stroke-linecap="round" stroke-linejoin="round" filter="url(#filter_1)" />
    </g>
  </g>
</svg>